<?xml version="1.0" standalone="no"?>
<!DOCTYPE svg PUBLIC "-//W3C//DTD SVG 20010904//EN"
 "http://www.w3.org/TR/2001/REC-SVG-20010904/DTD/svg10.dtd">
<svg version="1.0" xmlns="http://www.w3.org/2000/svg"
 width="768.000000pt" height="768.000000pt" viewBox="0 0 768.000000 768.000000"
 preserveAspectRatio="xMidYMid meet">
<metadata>
Created by potrace 1.11, written by Peter Selinger 2001-2013
</metadata>
<g transform="translate(0.000000,768.000000) scale(0.100000,-0.100000)"
fill="#000000" stroke="none">
<path d="M0 3840 l0 -3840 1055 0 1055 0 3 247 2 248 3 -247 2 -248 55 0 55 0
0 233 c0 127 3 502 6 832 5 553 7 606 25 675 23 87 72 171 136 235 71 72 89
78 222 75 167 -4 169 -4 176 -12 4 -4 15 -3 24 3 9 5 122 37 251 70 129 34
291 76 360 94 69 19 213 56 320 85 107 28 238 62 290 76 84 23 220 58 684 179
129 34 129 34 154 15 25 -21 72 -27 72 -11 0 5 -23 26 -50 46 -57 42 -47 42
-215 -4 -184 -50 -1313 -349 -1665 -441 -171 -45 -221 -53 -177 -29 9 6 15 14
12 19 -3 4 11 11 30 14 19 4 38 14 43 23 6 10 24 16 51 16 22 0 41 5 41 9 0 5
5 6 10 3 15 -9 71 5 65 16 -4 5 1 6 9 3 8 -3 39 1 68 10 29 8 134 36 233 61
235 61 366 95 555 144 85 23 223 59 305 80 234 61 277 75 325 104 54 32 51 33
-31 8 -35 -11 -109 -31 -164 -45 -138 -35 -424 -110 -515 -134 -41 -11 -262
-70 -490 -130 -228 -61 -423 -113 -432 -117 -10 -4 -18 -3 -18 2 0 23 43 43
150 71 63 16 165 43 225 60 61 17 265 72 455 122 190 50 350 93 355 95 6 3
-10 2 -35 0 -25 -2 -87 -7 -138 -10 -52 -4 -185 -13 -295 -21 -111 -8 -221
-14 -244 -14 -28 1 -43 -3 -43 -12 0 -8 -3 -9 -11 -1 -12 12 -61 5 -53 -9 4
-6 -3 -5 -14 1 -27 14 -104 15 -82 1 9 -6 10 -10 3 -10 -6 0 -15 5 -18 10 -3
6 -11 10 -16 10 -6 0 -7 -5 -3 -11 4 -8 -3 -9 -25 -4 -17 4 -31 3 -31 -2 0 -5
-60 -15 -132 -22 -73 -7 -173 -18 -223 -23 -115 -12 -112 -11 -229 -8 -95 2
-99 3 -129 34 -55 57 -115 146 -138 204 l-23 57 -8 1445 c-9 1499 -8 1515 32
1623 42 112 184 317 220 317 5 0 12 5 16 11 4 7 1 10 -7 7 -8 -3 -20 1 -27 8
-14 15 -45 7 -35 -9 3 -6 1 -7 -6 -3 -12 8 -49 -15 -131 -83 -30 -25 -48 -37
-40 -26 21 28 103 105 113 105 4 0 7 5 7 11 0 6 -9 8 -22 3 -13 -4 -33 -8 -44
-10 -12 -1 -35 -10 -50 -19 l-29 -17 25 22 c37 33 112 68 182 86 55 14 218 17
1253 26 1103 8 1718 4 1620 -13 -32 -5 -29 -6 17 -4 32 2 60 0 63 -5 2 -4 31
-10 64 -13 143 -13 311 -132 384 -274 67 -128 67 -131 67 -1010 l0 -786 69
105 c192 290 503 495 841 554 118 20 396 15 475 -9 l50 -15 -95 4 -95 4 97
-19 c124 -25 263 -72 355 -120 l73 -38 0 1548 0 1549 -3840 0 -3840 0 0 -3840z
m2144 1946 c-3 -15 -8 -25 -11 -23 -2 3 -1 17 3 31 3 15 8 25 11 23 2 -3 1
-17 -3 -31z m-24 -606 l-6 -565 -2 530 c-1 434 2 626 12 603 0 -2 -1 -257 -4
-568z m-3 -3492 c-3 -7 -5 -2 -5 12 0 14 2 19 5 13 2 -7 2 -19 0 -25z m-637
-1322 c0 -2 -8 -10 -17 -17 -16 -13 -17 -12 -4 4 13 16 21 21 21 13z m136 -24
c2 -11 0 -23 -4 -26 -5 -3 -8 5 -7 17 1 12 -3 26 -9 30 -7 6 -6 7 3 5 8 -2 16
-14 17 -26z m48 -4 c1 -15 -2 -24 -7 -21 -5 3 -7 14 -4 24 3 10 1 20 -4 23 -5
2 -4 3 2 2 7 -1 13 -14 13 -28z m-551 -3 c-3 -9 -8 -14 -10 -11 -3 3 -2 9 2
15 9 16 15 13 8 -4z m457 5 c0 -5 -2 -10 -4 -10 -3 0 -8 5 -11 10 -3 6 -1 10
4 10 6 0 11 -4 11 -10z m-269 -33 c-10 -9 -11 -8 -5 6 3 10 9 15 12 12 3 -3 0
-11 -7 -18z m166 1 c-3 -8 -6 -5 -6 6 -1 11 2 17 5 13 3 -3 4 -12 1 -19z m98
3 c3 -5 1 -12 -5 -16 -5 -3 -10 1 -10 9 0 18 6 21 15 7z"/>
<path d="M4923 6193 c65 -2 168 -2 230 0 62 1 9 3 -118 3 -126 0 -177 -2 -112
-3z"/>
<path d="M3710 5989 c-925 -9 -921 -9 -987 -41 -54 -27 -133 -87 -133 -102 0
-6 12 2 28 17 15 14 54 38 87 54 59 27 63 28 325 34 146 4 717 10 1270 14 911
6 1009 6 1042 -9 25 -11 40 -25 44 -41 3 -14 11 -25 16 -25 6 0 7 7 4 16 -3 9
-2 12 5 9 6 -4 8 -13 5 -21 -3 -8 3 -33 13 -57 19 -43 45 -141 62 -232 22
-115 9 -1381 -15 -1498 -3 -12 -7 -65 -10 -117 -3 -52 -8 -131 -11 -175 -3
-44 -7 -152 -11 -240 -6 -170 -7 -186 -24 -280 -34 -186 -37 -196 -58 -203 -8
-2 -12 13 -12 47 l0 51 -45 0 -45 0 0 45 0 45 45 0 45 0 0 610 0 610 -50 0
-50 0 0 45 0 45 -45 0 -45 0 0 -50 0 -50 45 0 45 0 0 -150 0 -150 -45 0 -45 0
0 -49 c0 -46 -1 -49 -31 -55 -17 -3 -60 -6 -95 -6 l-64 0 0 -99 c0 -55 -3
-102 -7 -104 -5 -3 -90 -8 -190 -12 l-183 -7 0 201 0 201 -50 0 -50 0 0 49 c0
53 10 61 73 61 26 0 27 2 27 50 l0 50 45 0 45 0 0 -50 0 -50 50 0 50 0 0 -50
0 -50 -50 0 -50 0 0 -50 0 -50 50 0 50 0 0 -100 0 -100 45 0 44 0 3 103 3 102
93 3 92 3 0 49 c0 48 1 50 28 50 62 0 72 8 72 61 l0 49 -50 0 -50 0 0 101 0
101 -42 -4 -43 -3 -3 103 -3 102 141 0 140 0 0 -50 c0 -48 1 -50 28 -50 71 0
72 2 72 112 l0 100 -145 -7 -145 -7 0 51 0 51 -45 0 -45 0 0 -99 c0 -108 -1
-111 -72 -111 -27 0 -28 -2 -28 -50 l0 -50 -79 0 c-43 0 -106 -3 -140 -6 l-61
-7 0 -98 0 -99 -50 0 -50 0 0 51 c0 48 -1 51 -22 45 -13 -3 -33 -6 -45 -6
l-23 0 0 -250 0 -250 45 0 45 0 0 -105 0 -104 -92 -3 -93 -3 -3 -50 -3 -51 96
4 95 4 0 -50 0 -50 -95 -7 -95 -7 0 -49 c0 -41 -3 -49 -19 -49 -10 0 -33 -3
-50 -6 l-31 -6 0 106 0 107 -95 -7 -95 -7 0 51 0 50 48 7 47 6 -1 47 -2 47
-96 -4 -96 -3 0 50 c0 54 9 62 73 62 26 0 27 2 27 50 l0 50 -142 -7 c-79 -3
-145 -8 -148 -10 -3 -3 -5 -25 -5 -49 l0 -44 48 0 47 0 0 -50 0 -50 50 0 50 0
0 -49 0 -48 -46 -7 c-26 -3 -69 -6 -95 -6 l-49 0 0 -51 0 -52 146 7 145 7 -3
-53 -3 -53 -95 -5 -95 -5 0 -50 0 -49 48 3 47 3 0 -50 c0 -59 -6 -62 -117 -62
l-73 0 0 -155 c0 -145 -1 -155 -19 -155 -10 0 -33 -3 -50 -6 l-31 -6 0 156 0
156 -49 0 -50 0 -3 -52 -3 -53 -47 -3 -48 -3 0 -54 0 -54 50 6 50 6 0 -52 0
-51 50 0 50 0 0 -49 0 -48 -61 -7 c-34 -3 -79 -6 -100 -6 l-39 0 0 50 0 50
-50 0 -50 0 0 -105 0 -105 50 0 50 0 0 -51 0 -50 48 3 47 3 3 52 3 52 47 3 47
3 3 53 3 52 42 0 c23 0 66 3 95 6 l52 7 0 -51 0 -51 -44 -6 -44 -7 -4 -49 -3
-50 50 3 50 3 3 53 3 52 45 0 44 0 0 53 0 52 -46 0 -46 0 -2 47 -2 47 61 5
c33 4 76 7 95 9 35 2 35 2 38 55 l3 52 50 0 49 0 0 -99 c0 -108 -1 -111 -72
-111 -27 0 -28 -2 -28 -50 l0 -50 50 0 50 0 0 -50 c0 -48 1 -50 28 -50 72 0
68 -11 68 213 l-1 202 48 3 47 3 0 -100 0 -101 50 0 50 0 0 -100 0 -100 49 0
c26 0 69 3 95 6 l46 7 0 48 0 49 -45 0 -45 0 0 50 0 50 45 0 45 0 0 55 0 55
50 0 50 0 0 50 c0 36 4 50 14 50 7 0 28 3 45 6 l31 7 0 -102 0 -101 95 0 95 0
0 -35 c0 -36 0 -36 35 -29 28 5 35 3 35 -10 0 -10 -15 -19 -42 -26 -85 -22
-108 -32 -123 -53 -8 -12 -15 -25 -15 -29 0 -7 34 -3 50 7 6 3 10 2 10 -4 0
-6 7 -8 15 -5 8 4 12 11 8 18 -3 6 4 2 18 -9 13 -11 21 -16 17 -11 -4 5 -3 15
3 23 13 14 44 18 35 4 -4 -5 10 -5 32 0 20 5 60 14 87 19 28 6 59 13 70 16 17
5 17 3 -3 -11 -13 -10 -36 -19 -50 -20 -58 -5 -102 -18 -102 -29 0 -6 3 -21 6
-33 5 -19 9 -21 26 -12 11 6 26 8 34 5 9 -3 12 -1 9 4 -8 13 1 13 27 -1 11 -6
18 -7 15 -2 -3 5 9 16 26 26 l32 17 -24 -20 c-25 -22 -21 -26 10 -10 14 8 19
21 19 49 0 33 4 40 24 45 18 4 23 11 19 26 -4 15 0 20 15 20 11 0 29 3 39 6
16 5 16 4 -1 -10 -11 -9 -15 -16 -9 -16 7 0 18 7 26 15 13 12 16 12 21 0 3 -8
-3 -17 -16 -21 -17 -5 -20 -12 -15 -44 5 -37 3 -39 -31 -53 l-36 -14 32 -5
c17 -2 29 -1 26 4 -3 4 1 8 9 8 8 0 25 -19 36 -42 12 -24 20 -35 17 -25 -4 12
-2 16 5 11 6 -4 15 0 20 7 6 9 7 2 3 -18 -4 -21 -1 -39 10 -54 l16 -23 0 24
c-1 14 -7 72 -14 130 -8 58 -11 108 -7 111 3 3 44 16 91 28 47 12 92 24 101
27 13 3 19 -5 25 -33 4 -21 6 -42 5 -46 -1 -5 3 -6 9 -2 5 3 10 14 10 24 0 19
45 63 55 53 3 -3 8 3 11 14 4 14 20 23 56 32 28 6 52 11 53 9 8 -18 45 -114
45 -118 0 -3 -18 -11 -40 -18 -52 -15 -100 -57 -100 -86 0 -34 16 -39 48 -18
30 21 78 43 92 43 6 0 1 -23 -10 -52 -11 -28 -17 -54 -14 -57 3 -3 50 -7 105
-9 118 -5 118 -6 28 88 -108 112 -161 262 -208 585 l-9 60 -1 -70 c0 -38 6
-110 14 -160 8 -49 15 -93 15 -97 0 -6 -55 -28 -71 -28 -5 0 -9 7 -9 15 0 9
-6 12 -15 9 -13 -5 -15 57 -15 522 -1 291 -3 862 -5 1269 l-4 740 -26 82 c-22
69 -34 89 -74 126 -28 26 -71 53 -104 66 -56 21 -69 21 -545 19 -268 -1 -818
-5 -1222 -9z m1260 -1559 l0 -150 -50 0 -50 0 0 -55 0 -55 -45 0 -45 0 0 50
c0 45 2 50 23 50 57 0 67 9 67 62 l0 50 -45 -6 -45 -7 0 55 0 56 45 0 45 0 0
50 0 50 50 0 50 0 0 -150z m280 -689 l0 -350 -45 -7 -46 -6 3 -151 3 -150 73
2 c71 2 73 2 70 -20 -3 -19 -15 -25 -87 -42 -65 -15 -85 -16 -91 -7 -5 7 -19
11 -34 8 -23 -5 -26 -2 -26 23 0 28 -2 29 -50 29 l-50 0 0 149 0 150 48 3 47
3 3 53 3 52 45 0 44 0 0 50 0 50 -45 0 -45 0 -1 173 c-1 94 -2 183 -3 197 -1
23 3 25 47 28 l47 3 0 55 0 54 45 0 45 0 0 -349z m-377 -93 c3 -13 6 -80 7
-151 1 -96 -2 -128 -12 -131 -7 -3 -73 -7 -145 -11 l-133 -6 0 155 0 155 108
4 c59 1 121 4 138 5 26 2 33 -2 37 -20z m-385 -150 l-3 -53 -42 -3 -43 -3 0
49 c0 27 3 52 7 55 3 4 24 7 45 7 l39 0 -3 -52z m-288 -19 l0 -52 50 5 50 5 0
-53 0 -54 -50 0 -50 0 0 50 0 50 -44 0 -45 0 -3 -52 -3 -53 -47 -3 -48 -3 0
-48 c0 -46 -1 -49 -31 -55 -67 -13 -70 -11 -67 47 l3 52 48 3 47 3 0 48 0 48
50 7 50 7 0 49 0 50 45 0 45 0 0 -51z m290 -389 l0 -50 -45 0 -45 0 0 50 0 50
45 0 45 0 0 -50z m1120 42 c0 -5 -43 -21 -96 -36 -78 -23 -98 -25 -105 -15
-11 18 3 25 75 38 33 6 62 13 64 16 9 8 62 6 62 -3z m-210 -146 c0 -3 -4 -8
-10 -11 -5 -3 -10 -1 -10 4 0 6 5 11 10 11 6 0 10 -2 10 -4z"/>
<path d="M4690 3510 l0 -50 45 0 45 0 0 50 0 50 -45 0 -45 0 0 -50z"/>
<path d="M5020 5800 c-157 -4 -297 -8 -312 -9 l-28 -1 0 -353 0 -353 183 3
c100 2 251 6 335 9 l152 6 -2 352 c-3 343 -3 351 -23 352 -11 0 -148 -3 -305
-6z m230 -348 l0 -249 -107 -6 c-58 -4 -164 -7 -235 -7 l-128 0 0 249 0 250
28 4 c15 2 120 5 235 6 l207 1 0 -248z"/>
<path d="M4908 5593 l-38 -4 0 -150 0 -151 143 4 142 3 0 150 0 150 -105 1
c-58 1 -122 -1 -142 -3z"/>
<path d="M4093 5782 l-93 -3 0 -49 0 -50 -44 0 -45 0 -3 48 -3 47 -47 3 -47 3
-3 -53 c-3 -56 -1 -55 -65 -57 -33 -1 -33 -1 -33 -51 l0 -50 -50 0 -50 0 0 50
0 50 -50 0 -50 0 0 50 0 50 -50 0 -50 0 0 -155 0 -155 -45 0 -45 0 0 -50 0
-50 145 0 145 0 0 -49 0 -50 -47 -3 -48 -3 -3 -102 -3 -103 -49 0 -50 0 0 100
0 100 -45 0 -45 0 0 -156 0 -156 48 3 47 3 3 -52 3 -52 -78 0 c-117 0 -123 -3
-123 -60 l0 -47 -107 -6 c-58 -4 -148 -7 -200 -7 l-93 0 0 -53 c0 -52 1 -53
28 -51 15 2 105 5 200 7 l172 5 0 -54 0 -54 -97 0 c-54 0 -122 -3 -150 -6
l-53 -7 0 -50 0 -50 98 6 c53 4 121 7 150 7 l52 0 0 49 c0 59 3 61 116 61 l84
0 0 -50 0 -50 95 0 c68 0 95 -3 97 -12 1 -7 2 -29 2 -48 1 -29 5 -36 25 -38
12 -2 34 -1 47 2 21 6 24 12 24 56 l0 50 50 0 50 0 0 -49 0 -50 -47 -3 -48 -3
-3 -44 c-4 -55 6 -65 57 -56 l41 7 0 49 0 49 80 2 c44 1 88 2 98 2 14 1 18 -9
20 -51 l3 -53 47 3 47 2 3 -47 3 -48 45 0 44 0 0 -99 c0 -55 4 -102 8 -105 4
-2 27 -2 50 1 l42 6 0 148 0 149 -50 0 -50 0 0 50 0 49 50 7 50 7 0 48 0 49
-100 -6 -100 -7 0 156 0 157 48 0 c26 0 91 3 145 7 l97 6 0 49 0 48 50 0 50 0
0 55 0 55 50 0 50 0 0 200 0 200 -50 0 -50 0 0 50 0 50 -51 0 -50 0 3 53 3 52
48 3 47 3 0 100 0 99 -94 0 -95 0 -3 -52 -3 -53 -47 -3 -48 -3 0 50 c0 27 -3
51 -7 53 -5 2 -50 2 -100 0z m107 -152 l0 -50 -49 0 -50 0 -3 -52 -3 -53 -45
-3 -45 -3 3 -49 4 -50 44 0 44 0 0 -51 0 -52 83 6 c45 4 110 7 145 7 l62 0 0
50 0 50 50 0 51 0 -3 -152 -3 -153 -45 0 -45 0 -3 50 -3 50 -44 -3 -45 -4 0
-99 0 -99 -50 0 -50 0 0 -55 0 -55 -145 0 -145 0 0 -55 0 -55 -50 0 -50 0 0
50 0 50 -50 0 -50 0 0 -49 c0 -53 -9 -61 -73 -61 l-28 0 3 -97 3 -98 48 -3 47
-3 0 -50 c0 -32 -4 -49 -12 -49 -7 0 -30 -3 -50 -6 l-38 -7 0 56 0 55 -47 -1
-48 -2 -3 50 -3 50 -144 -3 -145 -3 0 49 0 49 77 7 c42 3 129 6 195 6 l118 0
0 260 0 260 50 0 50 0 0 153 0 154 113 6 c61 4 149 7 195 7 l82 0 0 50 0 50
50 0 50 0 0 -50z m-195 -925 l0 -50 -47 -3 -48 -3 0 -48 c0 -52 -10 -61 -72
-61 -27 0 -28 2 -28 55 l0 55 50 0 50 0 0 49 c0 54 8 61 65 58 29 -2 30 -3 30
-52z"/>
<path d="M3810 5420 l0 -50 50 0 50 0 0 -49 c0 -53 -10 -61 -72 -61 -27 0 -28
-2 -28 -50 l0 -50 -50 0 -51 0 3 -102 3 -103 48 2 47 3 0 -56 0 -56 31 6 c17
3 40 6 50 6 17 0 19 9 19 99 l0 100 47 3 48 3 0 50 0 50 48 3 47 3 0 -50 0
-51 50 0 50 0 0 50 0 50 -50 0 -50 0 0 50 0 50 -50 0 -50 0 0 50 0 50 -45 0
-45 0 0 50 0 50 -50 0 -50 0 0 -50z m100 -311 l0 -49 -50 0 -50 0 0 49 0 50
43 3 c23 2 45 2 50 0 4 -2 7 -25 7 -53z"/>
<path d="M2770 5763 c-180 -3 -246 -7 -252 -16 -4 -6 -8 -172 -8 -367 l0 -356
138 4 c405 11 562 18 562 25 0 4 0 167 0 362 l0 355 -97 -2 c-54 -2 -208 -4
-343 -5z m350 -357 c0 -140 -3 -257 -7 -259 -5 -3 -119 -8 -255 -12 l-248 -7
0 260 0 261 23 4 c12 2 127 5 255 6 l232 1 0 -254z"/>
<path d="M2823 5553 l-113 -4 0 -155 0 -155 150 2 150 3 0 158 0 158 -37 -2
c-21 -1 -89 -4 -150 -5z"/>
<path d="M4680 4930 l0 -50 95 0 95 0 0 50 0 50 -95 0 -95 0 0 -50z"/>
<path d="M3120 4886 c0 -60 0 -60 61 -50 36 6 37 7 35 53 l-2 46 -47 3 -47 3
0 -55z"/>
<path d="M2698 4923 l-88 -4 0 -49 0 -50 100 0 100 0 0 55 c0 38 -4 54 -12 53
-7 -1 -52 -4 -100 -5z"/>
<path d="M4400 4720 l0 -50 45 0 45 0 0 50 0 50 -45 0 -45 0 0 -50z"/>
<path d="M6945 4709 c-190 -18 -398 -93 -567 -206 -125 -83 -343 -320 -324
-351 3 -5 -13 -44 -34 -88 -39 -77 -92 -225 -105 -293 -9 -42 -8 -504 0 -531
4 -11 11 -18 16 -14 6 3 7 -4 4 -18 -11 -42 73 -253 143 -363 15 -22 25 -44
24 -48 -1 -5 2 -6 7 -3 5 4 12 2 15 -3 8 -12 47 -1 103 27 41 21 59 54 47 86
-10 26 -89 56 -174 66 -46 5 -85 12 -88 15 -14 14 124 3 179 -15 34 -10 67
-16 72 -13 6 3 7 1 4 -4 -9 -15 19 -37 38 -29 8 3 12 12 9 21 -5 12 -2 14 12
8 16 -6 17 -5 6 9 -7 9 -21 14 -32 11 -31 -8 -23 4 10 15 25 9 35 7 64 -13 19
-13 37 -21 40 -17 11 10 6 52 -6 52 -14 0 -97 62 -98 73 0 4 9 3 20 -3 11 -6
25 -8 30 -5 11 7 388 -224 411 -251 12 -14 10 -19 -15 -39 -32 -25 -36 -27
-416 -131 -151 -41 -390 -107 -530 -146 -310 -86 -370 -92 -466 -43 -58 30
-60 31 -116 17 -54 -13 -59 -13 -112 11 -67 31 -96 26 -96 -14 0 -38 -36 -47
-160 -39 -105 7 -120 3 -139 -33 -17 -31 -50 -38 -121 -25 -78 14 -133 6 -177
-28 -35 -26 -44 -29 -111 -26 -62 2 -80 -1 -110 -20 -31 -19 -55 -23 -154 -28
l-117 -5 -40 -39 c-38 -37 -43 -39 -113 -42 -112 -5 -140 -12 -187 -50 -39
-30 -51 -34 -102 -34 -51 0 -60 -3 -82 -30 -14 -16 -24 -37 -23 -47 2 -10 1
-12 -1 -6 -3 10 -10 9 -28 -3 -16 -11 -45 -15 -97 -13 -61 1 -81 -3 -119 -23
-46 -25 -48 -25 -140 -12 -207 29 -208 29 -279 -3 -80 -37 -150 -98 -197 -171
-34 -54 -70 -138 -55 -128 4 2 7 -116 6 -262 0 -218 1 -239 6 -112 3 85 7 148
9 140 2 -8 7 1 11 20 4 20 8 -41 9 -147 l1 -183 28 0 c15 0 101 6 192 14 91 8
238 20 328 27 l162 13 0 267 0 267 40 7 c21 4 44 4 50 0 7 -4 10 -30 9 -64 -2
-31 0 -55 4 -53 4 1 27 2 52 2 l45 0 0 49 c0 31 -5 51 -12 54 -16 6 34 -2 87
-14 22 -4 57 -8 78 -9 34 0 37 -2 37 -30 0 -28 -2 -30 -40 -30 -46 0 -64 -23
-58 -76 l4 -34 -48 0 -48 0 0 -59 0 -58 50 5 c28 2 50 1 49 -4 -1 -5 -1 -28 0
-51 1 -42 2 -43 35 -43 67 0 66 -4 66 166 l0 154 45 0 44 0 3 -152 3 -153 40
3 c22 1 66 5 98 8 l57 6 0 -50 0 -51 -47 -3 -48 -3 -3 -54 -3 -54 100 7 101 7
0 -49 0 -49 -87 -7 c-49 -4 -114 -9 -145 -13 l-58 -6 0 53 0 52 -50 -4 -50 -3
0 47 c0 26 -3 49 -7 51 -5 2 -71 -1 -148 -7 l-140 -11 -3 -51 -3 -51 -52 -7
c-29 -3 -73 -6 -99 -6 l-48 0 0 -55 0 -55 50 0 50 0 0 -49 0 -48 -77 -7 c-130
-11 -123 -13 -123 44 l0 50 -34 0 c-59 0 -66 -7 -66 -62 l0 -50 48 3 47 3 3
-52 3 -52 -50 0 -50 0 -3 -107 -3 -108 -47 -3 -48 -3 0 -55 0 -54 -50 0 -50 0
0 44 c0 25 -4 47 -9 50 -5 3 -29 3 -54 0 l-46 -7 -3 -51 -3 -51 -47 -3 -48 -3
0 -56 0 -56 50 6 50 6 0 -48 c0 -26 2 -50 5 -52 2 -3 25 -3 51 1 l47 5 2 48
c1 26 4 49 6 51 2 2 26 7 52 10 l48 7 -2 -55 -2 -56 -41 0 c-53 0 -68 -11 -66
-46 4 -61 3 -63 -50 -70 l-50 -7 0 -43 0 -44 50 0 50 0 0 45 c0 28 5 47 13 49
6 2 30 8 52 12 38 9 39 11 41 50 2 57 9 64 60 64 l44 0 0 54 0 53 148 14 147
14 3 54 3 53 -33 -5 c-18 -3 -73 -9 -123 -12 -148 -10 -145 -9 -145 -65 0 -51
-10 -60 -72 -60 -27 0 -28 2 -28 49 0 53 10 61 73 61 26 0 27 2 27 54 l0 55
48 3 47 3 3 53 c3 52 3 52 37 52 57 0 65 7 65 60 0 47 0 47 38 54 62 10 62 10
62 -43 0 -54 -8 -61 -66 -61 l-34 0 0 -55 c0 -52 1 -55 23 -51 12 3 60 8 107
11 47 3 104 8 128 11 l42 6 0 48 c0 51 10 60 73 60 l27 0 0 106 0 107 -37 -7
c-21 -3 -44 -6 -50 -6 -9 0 -13 -17 -13 -50 0 -56 6 -53 -132 -65 l-68 -7 0
50 c0 57 7 62 100 62 103 1 100 -3 100 116 l0 104 48 0 48 0 1 -46 c1 -25 3
-48 5 -49 2 -2 45 -1 96 3 l93 8 -3 -51 -3 -50 -45 -5 -45 -5 -3 -101 -3 -101
-41 -6 c-22 -3 -44 -11 -48 -18 -12 -18 -7 -194 5 -193 6 1 49 5 98 8 l87 7 0
-50 0 -49 -50 -7 -50 -7 0 -49 c0 -31 -5 -51 -12 -54 -7 -2 -50 -6 -95 -10
l-83 -6 0 99 c0 54 -2 101 -4 103 -3 2 -25 3 -50 1 l-46 -4 0 -105 0 -105 48
4 47 3 3 -44 c2 -24 0 -47 -5 -51 -4 -5 -50 -11 -100 -15 l-93 -7 0 51 c0 28
-4 51 -8 51 -19 0 -230 -21 -259 -26 -32 -5 -33 -6 -33 -54 0 -58 -16 -55 168
-36 67 7 125 10 127 7 3 -2 5 -26 5 -52 l0 -47 -72 -7 c-40 -4 -129 -12 -198
-20 l-125 -12 198 -2 c190 -1 197 0 197 19 0 23 13 26 120 35 41 3 96 8 123
12 l47 6 0 47 c0 53 8 60 66 60 l34 0 0 -90 0 -90 395 0 395 0 0 24 c0 20 6
25 45 30 l45 7 0 50 0 50 -47 -3 -48 -3 -3 -51 -3 -50 -113 -12 c-62 -7 -128
-12 -146 -12 l-33 0 6 146 c3 80 7 148 9 150 2 2 31 6 64 9 131 13 124 10 124
66 l0 51 -47 -3 -48 -3 -3 43 c-4 51 6 61 61 61 l37 0 0 156 0 155 -47 -3 -48
-3 -3 -102 -3 -101 -49 -7 -50 -7 0 -48 c0 -50 -10 -60 -67 -60 -19 0 -22 -6
-25 -52 -3 -45 -6 -53 -23 -55 -11 -1 -55 -5 -97 -8 l-78 -7 0 -48 c0 -53 -8
-60 -66 -60 l-34 0 0 50 0 50 34 0 c59 0 66 7 66 62 l0 50 -47 -3 -48 -3 0 49
0 50 135 12 c74 6 141 12 148 12 8 1 12 18 12 51 l0 50 -50 0 -50 0 0 44 c0
25 4 47 8 50 5 3 50 8 100 12 l92 7 0 54 0 55 -50 -7 -50 -7 0 50 0 50 78 7
c42 3 85 7 96 8 16 2 19 13 22 101 2 54 5 100 6 101 2 2 21 5 43 7 l40 3 3
-52 c3 -51 4 -52 30 -48 15 2 57 7 95 10 l67 6 0 -51 0 -50 -34 0 c-18 0 -61
-3 -95 -6 l-61 -7 0 -53 0 -53 95 6 95 6 0 -96 c0 -106 3 -101 -70 -109 l-25
-3 -3 -252 -2 -253 49 0 50 0 3 53 3 52 48 3 48 3 -2 -96 c-1 -53 0 -98 3
-100 2 -3 66 1 141 8 l137 13 0 -48 0 -48 48 0 47 0 -4 -51 -3 -51 63 5 c35 4
91 9 124 12 43 5 56 3 45 -4 -11 -8 59 -11 243 -11 l257 0 0 741 0 741 23 -5
c12 -3 56 -9 99 -12 l76 -7 -28 -67 c-38 -90 -66 -188 -86 -301 -25 -146 -9
-428 31 -532 5 -13 -2 -19 -35 -29 -41 -12 -41 -12 -38 -58 3 -42 5 -46 28
-44 30 1 90 7 90 8 0 0 -12 54 -26 120 -31 147 -42 363 -25 486 16 109 54 236
98 327 29 60 38 70 50 61 8 -7 11 -19 7 -28 -148 -355 -142 -739 17 -1054 60
-120 94 -171 172 -260 62 -70 72 -99 18 -51 -17 15 -29 29 -28 31 2 2 -14 22
-36 46 -22 23 -50 59 -64 80 -13 22 -27 37 -29 34 -8 -7 69 -117 122 -176 l45
-50 755 -1 754 0 -2 937 -3 938 -60 36 c-90 54 -237 109 -360 135 -91 19 -102
23 -63 23 102 2 293 -50 413 -113 33 -17 63 -32 68 -34 4 -2 7 121 7 273 0
152 -3 275 -7 273 -147 -74 -255 -120 -323 -137 -265 -65 -520 -50 -759 46
-83 33 -200 96 -250 135 -44 34 -1 18 86 -32 158 -91 332 -147 482 -155 l86
-5 -81 15 c-139 25 -187 54 -58 35 245 -35 528 25 755 160 l69 41 0 982 0 982
-22 14 c-194 121 -470 183 -713 160z m-888 -1555 c8 -22 -9 -30 -57 -26 -26 3
-40 9 -40 18 0 8 7 14 16 14 8 0 12 -4 9 -10 -10 -16 15 -12 31 5 20 19 33 19
41 -1z m158 -26 c33 -17 63 -36 67 -42 8 -11 3 -74 -5 -83 -7 -7 -137 77 -137
89 0 5 5 18 10 29 9 16 7 19 -8 19 -11 0 -25 -7 -32 -15 -15 -17 -30 -11 -30
13 0 31 67 26 135 -10z m95 -9 c28 -17 49 -33 47 -35 -6 -6 -71 29 -76 40 -2
4 -8 2 -13 -5 -8 -11 -9 -10 -5 3 3 9 1 19 -6 22 -7 2 -9 5 -5 5 4 1 30 -13
58 -30z m-6 -177 c3 -5 -1 -9 -9 -9 -8 0 -15 4 -15 9 0 4 4 8 9 8 6 0 12 -4
15 -8z m454 -273 c-17 -11 -31 -11 -24 -1 3 4 1 25 -3 45 -8 31 -6 38 13 50
20 14 21 13 24 -36 2 -33 -1 -53 -10 -58z m-938 -511 c60 -90 81 -169 87 -325
3 -73 3 -138 0 -146 -4 -11 -16 -13 -59 -6 -29 4 -75 9 -103 11 l-50 3 -6 110
c-3 61 -9 121 -13 135 l-7 25 15 -26 c14 -24 25 -80 40 -199 2 -19 3 8 1 60
-2 70 -10 113 -29 165 -14 38 -23 71 -21 74 3 2 5 -1 5 -8 0 -8 11 -10 37 -5
20 4 58 7 85 8 26 1 48 5 48 10 0 25 -66 138 -101 172 -21 21 -39 42 -39 47 0
20 73 -50 110 -105z m-1125 -252 c6 1 70 5 143 9 l132 7 0 -45 0 -45 -95 -7
-95 -7 0 -40 c0 -34 -3 -39 -17 -33 -10 4 -53 9 -95 12 -67 5 -78 8 -78 24 0
16 -8 19 -45 19 l-45 0 0 44 0 45 45 7 c37 5 45 10 45 28 0 51 11 66 46 66 20
0 35 5 36 13 1 6 4 -13 7 -43 3 -30 11 -54 16 -54z m-303 -31 l3 -80 48 -3
c26 -2 47 -8 47 -14 0 -6 -15 -8 -42 -3 -42 6 -96 10 -190 13 l-48 2 0 94 0
93 83 2 c53 1 84 6 87 14 6 15 9 -13 12 -118z m-219 108 c-7 -2 -19 -2 -25 0
-7 3 -2 5 12 5 14 0 19 -2 13 -5z m-73 -25 c0 -7 3 -30 6 -50 l7 -38 -52 0
c-50 0 -51 0 -51 -31 0 -30 -1 -30 -47 -27 -40 3 -48 6 -48 23 0 18 -6 20 -47
18 l-48 -3 0 53 0 53 117 3 c65 1 120 4 122 7 10 9 41 3 41 -8z m-914 -17 c-7
-11 101 -19 117 -9 6 4 15 2 19 -5 5 -8 8 -5 8 8 0 12 3 16 8 9 9 -13 52 -25
52 -14 0 12 47 18 62 8 10 -7 10 -8 -2 -7 -32 3 -36 -2 -32 -32 l5 -32 -39 6
c-22 3 -67 9 -101 13 -38 4 -61 11 -60 18 1 7 -16 10 -53 8 -43 -2 -51 0 -37
8 9 6 22 8 29 4 6 -4 8 -3 4 4 -3 5 0 13 6 15 19 8 20 8 14 -2z m526 -46 l3
-55 -34 0 c-19 0 -63 5 -98 11 l-63 11 0 40 0 39 84 -3 c46 -2 82 0 79 5 -2 4
2 7 10 7 11 0 16 -15 19 -55z m-909 29 c3 -3 3 -12 0 -20 -6 -17 -79 -19 -89
-2 -4 7 -3 8 5 4 6 -4 18 0 27 8 16 16 45 21 57 10z m157 -3 c42 -8 39 -9 -32
-10 -42 0 -80 4 -83 9 -7 12 50 12 115 1z m-253 -37 c-3 -3 -12 -4 -19 -1 -8
3 -5 6 6 6 11 1 17 -2 13 -5z m2376 -30 c4 -22 0 -28 -29 -40 -18 -7 -36 -19
-40 -26 -6 -10 -4 -11 7 0 7 6 20 12 28 12 12 0 12 -2 -2 -12 -13 -11 -14 -16
-4 -30 7 -9 24 -18 37 -21 14 -3 -2 -4 -35 -3 l-60 1 -3 43 c-3 38 -1 42 20
44 13 1 30 2 38 4 8 1 20 2 26 3 6 1 9 12 6 26 -2 14 -2 25 1 25 2 0 7 -12 10
-26z m-1933 -6 c0 -9 4 -8 10 2 8 12 10 10 10 -11 l0 -25 -97 4 c-115 4 -137
12 -35 12 57 0 72 3 72 15 0 8 9 15 20 15 11 0 20 -6 20 -12z m655 -8 c4 -6
-9 -10 -32 -9 -38 1 -38 1 -8 9 17 4 31 8 32 9 1 0 5 -3 8 -9z m-178 -42 c-3
-8 -6 -5 -6 6 -1 11 2 17 5 13 3 -3 4 -12 1 -19z m-293 4 c3 -5 -23 -6 -57 -4
-87 5 -94 10 -15 11 37 1 69 -3 72 -7z m593 -39 c-3 -10 -5 -4 -5 12 0 17 2
24 5 18 2 -7 2 -21 0 -30z m-1032 -5 c33 -6 92 -11 130 -12 39 -1 76 -6 83
-10 9 -5 12 -67 12 -230 l0 -223 -142 -12 c-79 -6 -191 -14 -250 -18 l-108 -6
0 256 0 255 78 7 c42 3 84 8 92 9 8 2 22 2 30 -1 8 -3 42 -9 75 -15z m722 16
c-3 -3 -12 -4 -19 -1 -8 3 -5 6 6 6 11 1 17 -2 13 -5z m601 -27 c3 -26 1 -28
-25 -25 -22 2 -29 9 -31 31 -3 26 -1 28 25 25 22 -2 29 -9 31 -31z m865 26
c-7 -2 -19 -2 -25 0 -7 3 -2 5 12 5 14 0 19 -2 13 -5z m-1280 -20 c-7 -2 -19
-2 -25 0 -7 3 -2 5 12 5 14 0 19 -2 13 -5z m-113 -63 c20 -6 21 -8 5 -8 -11 0
-29 3 -40 8 -25 11 1 11 35 0z m260 -31 c0 -3 -29 -7 -65 -8 -36 -1 -65 2 -65
7 0 5 29 8 65 8 36 -1 65 -4 65 -7z m148 -22 c6 -4 9 -20 7 -35 -2 -15 -4 -30
-4 -34 -1 -5 -21 -8 -46 -8 l-45 0 0 49 0 48 38 -7 c21 -4 44 -10 50 -13z
m204 -29 c-3 -21 -10 -28 -26 -28 -11 0 -31 -3 -43 -6 -21 -6 -23 -3 -23 28
l0 34 48 0 c46 -1 48 -2 44 -28z m421 -15 c-7 -2 -19 -2 -25 0 -7 3 -2 5 12 5
14 0 19 -2 13 -5z m534 -12 c15 -8 10 -10 -27 -11 -26 0 -50 4 -55 9 -6 5 -21
12 -35 15 -14 3 3 3 37 1 33 -1 69 -8 80 -14z m-367 3 c0 -18 -17 -34 -36 -34
-26 0 -94 25 -94 34 0 4 29 5 65 4 36 -1 65 -3 65 -4z m615 -4 c13 -6 -11 -8
-68 -6 -49 3 -91 7 -95 10 -9 10 141 5 163 -4z m1263 -49 c-3 -39 -6 -46 -25
-49 -21 -3 -23 0 -23 46 0 50 10 64 38 54 9 -3 12 -20 10 -51z m-1025 22 c-7
-2 -21 -2 -30 0 -10 3 -4 5 12 5 17 0 24 -2 18 -5z m-1735 -50 l-3 -48 -47 -3
-48 -3 0 44 c0 24 3 47 7 50 3 4 26 7 50 7 l44 0 -3 -47z m1082 -9 c-13 -32
-12 -37 0 -29 6 3 10 2 10 -4 0 -5 8 -12 18 -14 9 -3 2 -5 -15 -6 -32 -1 -33
0 -33 39 0 29 4 40 15 40 11 0 12 -5 5 -26z m-222 -131 l-3 -148 -85 -7 c-47
-3 -109 -9 -137 -11 l-53 -6 0 149 0 149 53 5 c73 8 124 12 180 14 l48 2 -3
-147z m-570 60 l-3 -48 -42 -3 -43 -3 0 44 c0 24 3 47 7 50 3 4 24 7 45 7 l39
0 -3 -47z m-200 -58 c-2 -1 -22 -6 -45 -10 l-43 -7 0 51 0 50 43 3 42 3 3 -44
c2 -24 2 -44 0 -46z m392 -29 c0 -48 -9 -56 -61 -56 -28 0 -29 1 -29 50 l0 50
45 0 45 0 0 -44z m-290 -26 l0 -50 -45 0 -45 0 0 50 0 50 45 0 45 0 0 -50z
m891 -225 c5 45 6 43 6 -20 -1 -72 9 -119 22 -111 4 3 13 1 21 -5 13 -7 13 -9
0 -10 -8 0 -27 -3 -42 -5 l-28 -5 2 198 2 198 6 -145 c4 -101 7 -130 11 -95z
m793 -147 l-1 -153 6 127 c3 69 9 130 14 134 4 4 7 -63 7 -150 0 -102 -3 -155
-10 -151 -14 9 -12 -7 9 -105 37 -166 125 -361 213 -473 17 -21 28 -40 26 -43
-7 -7 -88 98 -135 175 -122 200 -177 468 -143 704 6 48 13 87 14 87 1 0 1 -69
0 -152z m-915 -25 l-3 -98 92 4 c66 2 92 0 92 -8 0 -7 -4 -10 -9 -6 -5 3 -13
1 -16 -5 -4 -6 -1 -9 7 -8 8 2 14 -7 15 -22 0 -14 1 -31 2 -38 1 -9 9 -11 24
-7 14 4 18 3 9 -3 -14 -9 -13 -92 1 -92 5 0 5 -5 1 -12 -11 -17 -12 -68 -2
-68 4 0 7 -10 7 -22 -1 -17 -2 -19 -6 -5 -2 9 -9 17 -15 17 -6 0 -8 20 -6 48
l3 47 -47 -3 -48 -4 0 52 0 51 -42 -5 c-24 -3 -67 -8 -95 -11 l-53 -6 0 101 0
100 -50 0 -50 0 0 -105 0 -105 45 0 45 0 0 -44 c0 -48 -9 -56 -61 -56 -28 0
-29 1 -29 50 0 55 -4 57 -69 44 -30 -6 -31 -9 -31 -55 l0 -49 50 0 50 0 0 -44
c0 -48 -9 -56 -66 -56 l-34 0 0 -49 c0 -52 -10 -61 -67 -61 -21 0 -23 5 -23
51 l0 52 -50 -7 -50 -7 0 49 0 49 50 7 50 7 0 199 c0 110 1 200 3 201 8 4 272
26 320 27 l58 2 -2 -97z m-1059 -32 l0 -48 -50 -7 -50 -7 0 -48 c0 -46 -1 -49
-31 -55 -62 -12 -60 -15 -57 97 l3 102 70 6 c39 3 80 6 93 7 20 2 22 -2 22
-47z m-202 -223 l-3 -53 -42 -3 -43 -3 0 50 0 50 38 4 c20 2 41 4 45 5 4 1 7
-22 5 -50z m1258 -188 c1 -74 -1 -140 -3 -147 -2 -6 -22 -13 -44 -15 l-39 -4
0 48 0 48 -50 0 -50 0 0 44 c0 47 11 56 73 56 26 0 27 2 27 49 0 53 8 61 60
58 l25 -2 1 -135z m194 40 c-13 -8 -13 -10 1 -10 9 0 19 -7 23 -15 3 -8 1 -15
-5 -15 -6 0 -9 -6 -6 -14 3 -8 -1 -17 -9 -20 -10 -4 -14 -22 -14 -61 0 -53 1
-55 27 -55 23 0 25 -2 12 -12 -13 -11 -14 -28 -10 -91 3 -44 4 -80 1 -82 -3
-1 -39 -6 -80 -9 -41 -4 -88 -9 -103 -12 l-28 -6 3 99 3 98 48 3 47 3 0 104 0
104 48 3 c54 3 63 1 42 -12z m45 -60 c3 -5 1 -10 -4 -10 -6 0 -11 5 -11 10 0
6 2 10 4 10 3 0 8 -4 11 -10z m-2495 -89 l0 -49 -40 -7 c-52 -9 -60 -2 -60 50
0 48 6 53 63 54 l37 1 0 -49z m1000 -120 l0 -49 -46 -4 c-25 -2 -47 -1 -50 1
-7 7 -5 87 3 94 3 4 26 7 50 7 l43 0 0 -49z m200 -80 c0 -53 -10 -61 -72 -61
-27 0 -28 2 -28 49 0 46 2 50 28 54 72 11 72 11 72 -42z m97 -98 l-2 -48 -47
-3 -48 -3 0 50 0 51 49 0 50 0 -2 -47z"/>
<path d="M2630 1720 c0 -5 5 -10 10 -10 6 0 10 5 10 10 0 6 -4 10 -10 10 -5 0
-10 -4 -10 -10z"/>
<path d="M2630 1691 c0 -6 4 -13 10 -16 6 -3 7 1 4 9 -7 18 -14 21 -14 7z"/>
<path d="M2840 1683 c-36 -2 -80 -5 -99 -9 l-33 -5 3 -154 c2 -84 6 -155 9
-158 3 -2 71 1 152 6 l147 10 3 159 3 158 -60 -2 c-33 -1 -89 -3 -125 -5z"/>
<path d="M4687 1403 c-4 -3 -7 -28 -7 -55 l0 -48 49 0 49 0 4 51 c1 28 1 53
-1 55 -7 7 -87 5 -94 -3z"/>
<path d="M2610 4611 c0 -55 4 -102 8 -105 4 -2 27 -2 50 1 l42 6 0 98 0 99
-50 0 -50 0 0 -99z"/>
<path d="M2719 4503 c-2 -15 3 -98 6 -101 1 -1 21 0 44 4 l41 7 0 48 0 49 -45
0 c-25 0 -45 -3 -46 -7z"/>
<path d="M3353 4423 l-33 -4 0 -100 0 -99 50 0 51 0 -3 102 c-3 112 -2 109
-65 101z"/>
<path d="M2827 4404 c-4 -4 -7 -29 -7 -56 l0 -49 48 3 47 3 0 50 0 50 -40 3
c-23 2 -44 0 -48 -4z"/>
<path d="M2617 4393 c-10 -9 -9 -91 1 -97 4 -2 27 -2 50 1 l42 6 0 48 0 49
-43 0 c-24 0 -47 -3 -50 -7z"/>
<path d="M2948 4303 c-26 -4 -28 -8 -28 -54 l0 -49 -49 0 c-46 0 -50 2 -56 29
-3 15 -5 32 -4 37 5 28 -4 34 -46 34 l-45 0 0 -56 0 -57 50 7 50 7 0 -57 0
-56 50 7 50 7 0 -106 0 -106 50 0 50 0 0 -49 c0 -53 -10 -61 -72 -61 -27 0
-28 -2 -28 -50 l0 -50 50 0 50 0 0 55 0 55 63 0 c34 0 79 3 100 6 l37 7 0 -57
0 -56 -50 0 -50 0 0 -50 0 -50 100 0 100 0 0 -50 0 -50 138 6 c75 3 143 7 150
10 7 2 12 22 12 54 l0 50 45 0 45 0 0 53 0 52 -95 -3 -95 -3 0 -55 0 -54 -50
0 -50 0 0 100 0 100 -100 0 -100 0 0 49 0 48 61 7 c34 3 79 6 100 6 l39 0 0
-50 0 -50 50 0 51 0 -3 102 -3 102 -47 -3 -48 -3 0 51 0 51 -112 0 c-62 0
-130 -3 -150 -6 -38 -7 -38 -7 -38 -55 l0 -49 -50 0 -50 0 0 50 0 50 -50 0
-50 0 0 50 0 50 48 1 c26 1 92 4 147 8 l100 6 3 48 3 47 -123 -1 c-68 -1 -135
-4 -150 -6z m272 -353 l0 -50 -50 0 -50 0 0 50 0 50 50 0 50 0 0 -50z"/>
<path d="M2512 4238 l3 -53 48 3 47 4 0 -49 c0 -28 2 -52 4 -54 2 -2 26 -3 53
-1 l48 4 -3 49 -4 49 -49 0 -49 0 0 50 0 50 -51 0 -50 0 3 -52z"/>
<path d="M3553 4223 l-33 -4 0 -100 0 -99 44 0 45 0 3 53 3 52 48 3 47 3 0 50
0 49 -62 -2 c-35 0 -78 -3 -95 -5z"/>
<path d="M6030 4128 c-12 -22 -12 -22 6 -6 10 10 15 20 12 24 -4 3 -12 -5 -18
-18z"/>
<path d="M3620 3920 l0 -100 45 0 45 0 0 100 0 100 -45 0 -45 0 0 -100z"/>
<path d="M2705 3981 l-90 -6 0 -50 0 -50 -53 -3 -53 -3 3 -51 3 -51 103 2 102
2 0 -49 0 -49 -67 -6 c-38 -4 -85 -7 -106 -7 l-38 0 3 -51 3 -52 94 2 c52 1
99 5 103 7 4 3 8 27 8 54 l0 49 48 3 47 3 0 154 c0 95 -4 155 -10 156 -5 0
-50 -1 -100 -4z"/>
<path d="M2815 3464 c-115 -6 -231 -13 -257 -13 l-48 -1 -1 -337 c-2 -340 -10
-383 -28 -148 l-8 100 -1 -102 c-2 -123 10 -189 51 -266 36 -69 98 -127 176
-163 62 -30 123 -34 331 -20 58 3 328 20 600 36 272 16 529 32 571 35 65 4
192 34 522 122 55 15 57 17 40 35 -11 12 -19 15 -23 7 -4 -6 -11 -10 -16 -9
-5 1 -40 -3 -79 -9 -38 -6 -119 -13 -180 -17 -60 -3 -126 -7 -145 -9 -19 -3
-105 -9 -190 -15 -85 -5 -177 -12 -205 -15 -27 -2 -120 -12 -205 -20 -85 -8
-168 -17 -185 -19 -43 -6 -155 -14 -435 -31 -135 -8 -275 -17 -311 -19 -44 -3
-75 0 -93 9 -15 8 -34 12 -44 9 -11 -4 -13 -3 -5 3 9 6 7 12 -8 22 -17 10 -20
10 -14 -1 3 -7 0 -5 -9 6 -8 10 -19 15 -24 12 -5 -3 -17 3 -27 14 -10 11 -14
20 -10 20 5 0 1 6 -10 13 -16 13 -14 15 26 20 24 3 166 13 314 22 149 9 285
18 303 21 l32 5 0 359 0 360 -97 -1 c-54 -1 -192 -8 -308 -15z m305 -344 l0
-259 -32 -5 c-29 -5 -406 -26 -450 -26 -17 0 -18 19 -18 260 l0 260 23 1 c18
1 381 23 455 28 l22 1 0 -260z"/>
<path d="M2885 3260 c-60 -4 -122 -8 -137 -9 l-28 -1 0 -157 0 -156 107 6 c58
4 126 7 150 7 l43 0 0 160 c0 122 -3 160 -12 158 -7 -1 -62 -5 -123 -8z"/>
<path d="M4738 2953 l-48 -4 0 -52 0 -52 45 3 c40 4 45 2 45 -17 0 -14 6 -21
19 -21 31 0 34 18 6 36 -35 23 -32 57 8 88 l32 26 -30 -2 c-16 -1 -51 -3 -77
-5z"/>
<path d="M6556 2903 c-16 -16 -2 -35 49 -68 64 -41 65 -41 65 -16 0 19 -103
95 -114 84z"/>
<path d="M5330 2820 c0 -5 5 -10 10 -10 6 0 10 5 10 10 0 6 -4 10 -10 10 -5 0
-10 -4 -10 -10z"/>
<path d="M4799 2692 c-25 -9 -59 -27 -75 -40 l-29 -22 55 23 c111 48 144 73
49 39z"/>
<path d="M2570 2670 c0 -5 5 -10 11 -10 5 0 7 5 4 10 -3 6 -8 10 -11 10 -2 0
-4 -4 -4 -10z"/>
<path d="M3058 2483 c7 -3 16 -2 19 1 4 3 -2 6 -13 5 -11 0 -14 -3 -6 -6z"/>
<path d="M2568 1033 l-58 -4 0 -55 0 -55 105 7 105 7 -2 -49 -3 -49 -102 -9
-103 -9 0 -55 0 -55 50 5 49 5 3 -51 3 -51 60 3 c33 2 78 7 100 11 l40 6 3
153 3 152 -51 0 -50 0 0 50 0 50 -47 -2 c-27 -1 -74 -3 -105 -5z"/>
<path d="M2471 964 c0 -11 3 -14 6 -6 3 7 2 16 -1 19 -3 4 -6 -2 -5 -13z"/>
<path d="M2473 780 c0 -36 2 -50 4 -32 2 17 2 47 0 65 -2 17 -4 3 -4 -33z"/>
<path d="M5909 286 c-2 -2 -3 -68 -1 -145 l3 -141 107 0 106 0 -35 37 c-52 56
-94 113 -138 187 -21 36 -40 64 -42 62z"/>
</g>
</svg>
