<svg preserveAspectRatio="none" xmlns="http://www.w3.org/2000/svg" width="96.793" height="80" viewBox="0 0 96.793 80">
  <path data-name="Path 6" d="M63.41,47.555,47.55,34.96q8.863-9.1,13.061-17.143A37.007,37.007,0,0,0,64.809.441l9.1,10.5H43.351V-32.445H87.433V-5.39a65.768,65.768,0,0,1-5.481,27.172Q76.471,34.027,63.41,47.555Zm-52.711,0L-5.162,34.96Q3.7,25.864,7.9,17.817A37.007,37.007,0,0,0,12.1.441l9.1,10.5H-9.36V-32.445H34.722V-5.39a65.768,65.768,0,0,1-5.481,27.172Q23.76,34.027,10.7,47.555Z" fill="rgba(255,255,255,1)" transform="translate(9.36 32.445)"></path>
</svg>